<svg width="46" height="10" viewBox="0 0 46 10" fill="none" xmlns="http://www.w3.org/2000/svg">
<path fill-rule="evenodd" clip-rule="evenodd" d="M42.753 5.9995L40.273 8.2935C39.877 8.6835 39.877 9.3165 40.273 9.7075C40.668 10.0975 41.31 10.0975 41.705 9.7075L45.555 6.0605C45.843 5.7775 46 5.4025 46 4.9995C46 4.5995 45.842 4.2215 45.556 3.9395L41.706 0.2925C41.31 -0.0975 40.668 -0.0975 40.272 0.2925C39.877 0.6825 39.877 1.3155 40.272 1.7065L42.752 3.9995L1 3.9995C0.447 3.9995 0 4.4455 0 4.9995C0 5.5495 0.448 5.9995 1 5.9995L42.753 5.9995Z" fill="#0D0D0D"/>
</svg>
